HIERARCHY
ROOT mixamorig:Hips
{
	OFFSET 0.000000 77.627144 7.190781
	CHANNELS 6 Xposition Yposition Zposition Xrotation Yrotation Zrotation
	JOINT mixamorig:Spine
	{
		OFFSET 0.000000 14.685707 -1.734714
		CHANNELS 3 Xrotation Yrotation Zrotation
		JOINT mixamorig:Spine1
		{
			OFFSET 0.000000 17.133331 -2.023833
			CHANNELS 3 Xrotation Yrotation Zrotation
			JOINT mixamorig:Spine2
			{
				OFFSET 0.000000 19.580948 -2.312953
				CHANNELS 3 Xrotation Yrotation Zrotation
				JOINT mixamorig:Neck
				{
					OFFSET 0.000000 22.028564 -2.602070
					CHANNELS 3 Xrotation Yrotation Zrotation
					JOINT mixamorig:Head
					{
						OFFSET 0.000000 7.772293 1.167654
						CHANNELS 3 Xrotation Yrotation Zrotation
						JOINT mixamorig:HeadTop_End
						{
							OFFSET 0.000000 26.518158 3.983897
							CHANNELS 3 Xrotation Yrotation Zrotation
							End Site
							{
								OFFSET 0.000000 26.815750 0.000000
							}
						}
					}
				}
				JOINT mixamorig:LeftShoulder
				{
					OFFSET 11.646637 18.513367 -2.583829
					CHANNELS 3 Xrotation Yrotation Zrotation
					JOINT mixamorig:LeftArm
					{
						OFFSET 23.494797 -6.787735 0.036483
						CHANNELS 3 Xrotation Yrotation Zrotation
						JOINT mixamorig:LeftForeArm
						{
							OFFSET 22.628841 -2.236465 0.895561
							CHANNELS 3 Xrotation Yrotation Zrotation
							JOINT mixamorig:LeftHand
							{
								OFFSET 32.235813 0.214081 0.341628
								CHANNELS 3 Xrotation Yrotation Zrotation
								JOINT mixamorig:LeftHandThumb1
								{
									OFFSET 4.043732 -2.301453 4.675424
									CHANNELS 3 Xrotation Yrotation Zrotation
									JOINT mixamorig:LeftHandThumb2
									{
										OFFSET 3.235001 -1.841141 3.740334
										CHANNELS 3 Xrotation Yrotation Zrotation
										JOINT mixamorig:LeftHandThumb3
										{
											OFFSET 4.136284 -1.355438 2.884997
											CHANNELS 3 Xrotation Yrotation Zrotation
											JOINT mixamorig:LeftHandThumb4
											{
												OFFSET 3.443222 -1.440781 1.895251
												CHANNELS 3 Xrotation Yrotation Zrotation
												End Site
												{
													OFFSET 3.082619 -1.455811 2.429330
												}
											}
										}
									}
								}
								JOINT mixamorig:LeftHandIndex1
								{
									OFFSET 12.534279 0.552322 5.370454
									CHANNELS 3 Xrotation Yrotation Zrotation
									JOINT mixamorig:LeftHandIndex2
									{
										OFFSET 4.462021 -0.042068 -0.222766
										CHANNELS 3 Xrotation Yrotation Zrotation
										JOINT mixamorig:LeftHandIndex3
										{
											OFFSET 4.426414 -0.140015 -0.221126
											CHANNELS 3 Xrotation Yrotation Zrotation
											JOINT mixamorig:LeftHandIndex4
											{
												OFFSET 3.584976 -0.033737 -0.180877
												CHANNELS 3 Xrotation Yrotation Zrotation
												End Site
												{
													OFFSET 3.584984 -0.033707 -0.180676
												}
											}
										}
									}
								}
								JOINT mixamorig:LeftHandMiddle1
								{
									OFFSET 12.067444 0.830978 1.411757
									CHANNELS 3 Xrotation Yrotation Zrotation
									JOINT mixamorig:LeftHandMiddle2
									{
										OFFSET 5.488625 0.110443 -0.140360
										CHANNELS 3 Xrotation Yrotation Zrotation
										JOINT mixamorig:LeftHandMiddle3
										{
											OFFSET 5.193268 -0.285706 -0.132956
											CHANNELS 3 Xrotation Yrotation Zrotation
											JOINT mixamorig:LeftHandMiddle4
											{
												OFFSET 4.443779 -0.316895 -0.113542
												CHANNELS 3 Xrotation Yrotation Zrotation
												End Site
												{
													OFFSET 4.443962 -0.316620 -0.107084
												}
											}
										}
									}
								}
								JOINT mixamorig:LeftHandRing1
								{
									OFFSET 12.202324 0.602158 -2.428782
									CHANNELS 3 Xrotation Yrotation Zrotation
									JOINT mixamorig:LeftHandRing2
									{
										OFFSET 4.681709 0.293594 -0.070412
										CHANNELS 3 Xrotation Yrotation Zrotation
										JOINT mixamorig:LeftHandRing3
										{
											OFFSET 4.517784 0.001785 -0.067170
											CHANNELS 3 Xrotation Yrotation Zrotation
											JOINT mixamorig:LeftHandRing4
											{
												OFFSET 3.536186 -0.473984 -0.050865
												CHANNELS 3 Xrotation Yrotation Zrotation
												End Site
												{
													OFFSET 3.536438 -0.473450 -0.036327
												}
											}
										}
									}
								}
								JOINT mixamorig:LeftHandPinky1
								{
									OFFSET 11.261032 -0.021225 -5.740205
									CHANNELS 3 Xrotation Yrotation Zrotation
									JOINT mixamorig:LeftHandPinky2
									{
										OFFSET 4.446136 0.226913 -0.056313
										CHANNELS 3 Xrotation Yrotation Zrotation
										JOINT mixamorig:LeftHandPinky3
										{
											OFFSET 3.536148 0.035980 -0.044635
											CHANNELS 3 Xrotation Yrotation Zrotation
											JOINT mixamorig:LeftHandPinky4
											{
												OFFSET 2.822449 0.069366 -0.035670
												CHANNELS 3 Xrotation Yrotation Zrotation
												End Site
												{
													OFFSET 2.822449 0.069397 -0.035034
												}
											}
										}
									}
								}
							}
						}
					}
				}
				JOINT mixamorig:RightShoulder
				{
					OFFSET -11.646637 18.513367 -2.620312
					CHANNELS 3 Xrotation Yrotation Zrotation
					JOINT mixamorig:RightArm
					{
						OFFSET -23.494804 -6.787735 -0.036485
						CHANNELS 3 Xrotation Yrotation Zrotation
						JOINT mixamorig:RightForeArm
						{
							OFFSET -22.628826 -2.236481 0.960591
							CHANNELS 3 Xrotation Yrotation Zrotation
							JOINT mixamorig:RightHand
							{
								OFFSET -32.235806 0.214096 0.317908
								CHANNELS 3 Xrotation Yrotation Zrotation
								JOINT mixamorig:RightHandThumb1
								{
									OFFSET -4.056908 -2.304855 4.721249
									CHANNELS 3 Xrotation Yrotation Zrotation
									JOINT mixamorig:RightHandThumb2
									{
										OFFSET -3.245529 -1.843887 3.777003
										CHANNELS 3 Xrotation Yrotation Zrotation
										JOINT mixamorig:RightHandThumb3
										{
											OFFSET -4.153908 -1.359879 2.907515
											CHANNELS 3 Xrotation Yrotation Zrotation
											JOINT mixamorig:RightHandThumb4
											{
												OFFSET -3.491310 -1.375549 1.529044
												CHANNELS 3 Xrotation Yrotation Zrotation
												End Site
												{
													OFFSET -3.035126 -1.400162 2.290608
												}
											}
										}
									}
								}
								JOINT mixamorig:RightHandIndex1
								{
									OFFSET -12.331047 0.757294 5.317495
									CHANNELS 3 Xrotation Yrotation Zrotation
									JOINT mixamorig:RightHandIndex2
									{
										OFFSET -4.758568 -0.224289 -0.035605
										CHANNELS 3 Xrotation Yrotation Zrotation
										JOINT mixamorig:RightHandIndex3
										{
											OFFSET -4.415932 -0.181503 -0.033052
											CHANNELS 3 Xrotation Yrotation Zrotation
											JOINT mixamorig:RightHandIndex4
											{
												OFFSET -3.678474 0.414856 -0.027373
												CHANNELS 3 Xrotation Yrotation Zrotation
												End Site
												{
													OFFSET -3.678375 0.414001 -0.046045
												}
											}
										}
									}
								}
								JOINT mixamorig:RightHandMiddle1
								{
									OFFSET -12.051239 0.663742 1.548264
									CHANNELS 3 Xrotation Yrotation Zrotation
									JOINT mixamorig:RightHandMiddle2
									{
										OFFSET -5.374817 0.301971 -0.166537
										CHANNELS 3 Xrotation Yrotation Zrotation
										JOINT mixamorig:RightHandMiddle3
										{
											OFFSET -5.310471 -0.301758 -0.164593
											CHANNELS 3 Xrotation Yrotation Zrotation
											JOINT mixamorig:RightHandMiddle4
											{
												OFFSET -4.485832 -0.342514 -0.139207
												CHANNELS 3 Xrotation Yrotation Zrotation
												End Site
												{
													OFFSET -4.486198 -0.342010 -0.127963
												}
											}
										}
									}
								}
								JOINT mixamorig:RightHandRing1
								{
									OFFSET -12.195183 0.742325 -2.381488
									CHANNELS 3 Xrotation Yrotation Zrotation
									JOINT mixamorig:RightHandRing2
									{
										OFFSET -4.583191 0.034424 -0.012763
										CHANNELS 3 Xrotation Yrotation Zrotation
										JOINT mixamorig:RightHandRing3
										{
											OFFSET -4.612793 0.026199 -0.012632
											CHANNELS 3 Xrotation Yrotation Zrotation
											JOINT mixamorig:RightHandRing4
											{
												OFFSET -3.314957 -0.541855 -0.006643
												CHANNELS 3 Xrotation Yrotation Zrotation
												End Site
												{
													OFFSET -3.315063 -0.541092 0.010116
												}
											}
										}
									}
								}
								JOINT mixamorig:RightHandPinky1
								{
									OFFSET -11.332825 -0.054398 -5.574547
									CHANNELS 3 Xrotation Yrotation Zrotation
									JOINT mixamorig:RightHandPinky2
									{
										OFFSET -4.462639 0.300003 -0.206312
										CHANNELS 3 Xrotation Yrotation Zrotation
										JOINT mixamorig:RightHandPinky3
										{
											OFFSET -3.493774 0.049591 -0.161451
											CHANNELS 3 Xrotation Yrotation Zrotation
											JOINT mixamorig:RightHandPinky4
											{
												OFFSET -2.793701 0.056946 -0.129098
												CHANNELS 3 Xrotation Yrotation Zrotation
												End Site
												{
													OFFSET -2.793793 0.057053 -0.126857
												}
											}
										}
									}
								}
							}
						}
					}
				}
			}
		}
	}
	JOINT mixamorig:LeftUpLeg
	{
		OFFSET 13.580879 -8.149223 -1.796077
		CHANNELS 3 Xrotation Yrotation Zrotation
		JOINT mixamorig:LeftLeg
		{
			OFFSET 3.676140 -35.802425 -2.676071
			CHANNELS 3 Xrotation Yrotation Zrotation
			JOINT mixamorig:LeftFoot
			{
				OFFSET -0.369089 -26.709160 -2.057140
				CHANNELS 3 Xrotation Yrotation Zrotation
				JOINT mixamorig:LeftToeBase
				{
					OFFSET -1.192477 -6.581660 13.403662
					CHANNELS 3 Xrotation Yrotation Zrotation
					JOINT mixamorig:LeftToe_End
					{
						OFFSET -0.351336 -0.163913 5.937977
						CHANNELS 3 Xrotation Yrotation Zrotation
						End Site
						{
							OFFSET -0.351338 -0.163913 5.937977
						}
					}
				}
			}
		}
	}
	JOINT mixamorig:RightUpLeg
	{
		OFFSET -13.580879 -8.149223 -2.255285
		CHANNELS 3 Xrotation Yrotation Zrotation
		JOINT mixamorig:RightLeg
		{
			OFFSET -3.676140 -35.802425 -2.316821
			CHANNELS 3 Xrotation Yrotation Zrotation
			JOINT mixamorig:RightFoot
			{
				OFFSET 0.369059 -26.709040 -2.090143
				CHANNELS 3 Xrotation Yrotation Zrotation
				JOINT mixamorig:RightToeBase
				{
					OFFSET 1.192393 -6.582436 13.372205
					CHANNELS 3 Xrotation Yrotation Zrotation
					JOINT mixamorig:RightToe_End
					{
						OFFSET 0.351307 -0.164255 5.913618
						CHANNELS 3 Xrotation Yrotation Zrotation
						End Site
						{
							OFFSET 0.351309 -0.164255 5.913618
						}
					}
				}
			}
		}
	}
}
MOTION
Frames: 4
Frame Time: 0.016667
-0.271024 71.012955 1.250652 -8.582507 -13.041360 1.076614 -0.772818 1.937722 -3.535619 8.737513 0.082706 -0.966353 8.741234 0.148172 -0.949499 -1.671231 1.683757 0.533474 -18.043931 10.852440 -4.668319 -0.000000 -0.000000 -0.000001 0.963212 -5.156263 13.730399 73.137522 -34.818624 -42.146109 15.459348 -110.129615 15.987654 0.457632 1.633290 48.986516 -3.444004 28.859971 12.255733 3.243145 -4.685037 -5.926725 -4.844272 -4.083317 5.619808 -0.000001 0.000003 0.000002 0.619652 -9.639149 6.473025 -0.493465 1.116548 -12.759173 -0.601361 1.118404 -15.296484 -0.000003 0.000001 0.000001 0.474681 -8.202676 4.091487 -0.147042 1.094978 -10.320198 -0.151012 1.125278 -13.945672 -0.000001 -0.000001 -0.000002 0.510154 -7.530617 0.806486 -0.096177 1.130277 -11.896877 0.039274 1.148399 -8.070543 -0.000002 -0.000003 -0.000003 0.180848 -3.284920 1.089756 0.131576 -2.875131 -14.225903 -0.058074 1.197995 -17.072454 0.000004 0.000002 0.000002 0.762437 5.560946 0.139207 72.645284 -0.086611 52.645032 7.500314 126.882075 -8.935650 20.922519 -13.338490 -1.632577 -1.672852 -34.030011 -8.470628 3.954639 4.132435 6.367105 -6.083596 10.687322 -4.186516 -0.000004 0.000006 0.000002 0.051782 7.600689 -3.697075 -0.006005 -0.425191 6.547218 -0.069925 -0.440613 14.989157 -0.000000 -0.000003 -0.000002 0.395774 8.861840 3.408408 -0.025726 -0.446913 0.954534 -0.141914 -0.452950 6.332883 -0.000005 -0.000001 -0.000002 0.224043 7.147791 2.204482 0.016737 -0.583942 8.837056 0.046692 -0.621650 -0.652255 0.000000 0.000000 -0.000002 0.290404 9.551458 6.904341 -0.314469 -0.612519 7.093539 -0.437446 -0.634587 10.472648 0.000001 -0.000003 0.000001 -6.442888 1.289951 -0.243959 46.919640 10.624726 3.767619 -29.498788 10.222491 -11.412824 -0.000042 0.000001 -0.000005 0.000000 -0.000000 0.000000 -12.473085 -0.954830 -7.583275 53.206036 -6.657755 -6.294056 -31.624654 -3.651408 12.656635 -0.570303 0.000018 0.000006 0.000001 0.000001 0.000000 
-0.184527 70.596992 1.048377 -9.660296 -12.896902 0.451256 0.233301 2.131665 -3.331847 9.034429 0.139520 -0.678861 9.036263 0.204616 -0.657737 -2.023976 1.672553 0.401814 -18.612996 10.672167 -4.662134 0.000000 0.000000 0.000000 0.936119 -4.984487 13.567483 72.431731 -34.944785 -41.419005 15.438878 -110.153650 15.968479 1.439216 1.244899 49.138963 -3.444006 28.859967 12.255737 3.243149 -4.685041 -5.926723 -4.844271 -4.083306 5.619805 -0.000004 -0.000004 0.000000 0.617489 -9.636575 6.435887 -0.493873 1.117666 -12.772851 -0.601733 1.119580 -15.310134 -0.000001 0.000000 0.000002 0.473473 -8.200037 4.054556 -0.147154 1.096031 -10.333901 -0.151046 1.126275 -13.958645 -0.000001 0.000002 0.000001 0.509382 -7.527995 0.769328 -0.096163 1.131251 -11.910004 0.039333 1.149284 -8.082901 0.000000 -0.000001 -0.000001 0.182874 -3.282084 1.052433 0.131614 -2.874219 -14.238080 -0.058004 1.198906 -17.084634 -0.000002 -0.000001 0.000001 0.766949 5.750701 0.339322 73.944673 -2.554033 53.909112 6.827055 129.494759 -8.410166 21.072276 -13.268720 -0.479626 -1.672858 -34.030011 -8.470609 3.954641 4.132436 6.367107 -6.083596 10.687322 -4.186520 -0.000002 0.000003 0.000000 0.051205 7.596343 -3.633165 -0.005893 -0.427394 6.579126 -0.069829 -0.442827 15.021063 -0.000001 0.000000 -0.000001 0.393937 8.858216 3.467028 -0.026509 -0.448747 0.984649 -0.142498 -0.454772 6.361930 -0.000004 0.000002 -0.000001 0.223988 7.144393 2.256512 0.016922 -0.585685 8.863891 0.046882 -0.623331 -0.626325 -0.000001 0.000001 -0.000002 0.288337 9.548439 6.951918 -0.315402 -0.614037 7.117157 -0.438277 -0.636154 10.496255 -0.000002 0.000001 0.000001 -6.427173 1.552175 0.376383 49.285863 10.966480 3.838591 -30.803194 9.740335 -11.908060 -0.000110 -0.000001 0.000002 0.000000 0.000000 -0.000001 -11.932848 -0.905707 -7.075085 54.563571 -6.998594 -6.429776 -32.401936 -3.857755 12.906063 -0.583196 -0.000001 -0.000003 0.000001 -0.000002 0.000000 
-0.060992 70.222588 0.819860 -10.916391 -12.792680 -0.218598 1.415761 2.244312 -3.187778 9.362437 0.185478 -0.379316 9.362446 0.252102 -0.355565 -2.375105 1.630915 0.349360 -19.235138 10.410420 -4.613111 -0.000000 0.000000 -0.000000 0.911952 -4.821806 13.482168 71.640495 -35.088823 -40.629339 15.471777 -110.115087 15.999317 2.426693 0.714512 49.326595 -3.444009 28.859971 12.255740 3.243149 -4.685047 -5.926724 -4.844271 -4.083316 5.619804 -0.000005 0.000003 0.000000 0.616241 -9.635082 6.413963 -0.494127 1.118413 -12.781348 -0.601980 1.120312 -15.318653 -0.000002 0.000000 -0.000000 0.472731 -8.198413 4.032119 -0.147217 1.096706 -10.342758 -0.151075 1.126931 -13.967106 0.000002 -0.000001 0.000005 0.508898 -7.526353 0.746072 -0.096158 1.131893 -11.918985 0.039384 1.149884 -8.091455 0.000004 -0.000001 -0.000000 0.184128 -3.280225 1.028478 0.131695 -2.873581 -14.246813 -0.057926 1.199546 -17.093416 0.000002 -0.000001 0.000002 0.770611 5.905488 0.525997 75.091626 -5.190551 55.354384 6.236852 132.053306 -7.966798 21.509300 -13.173990 1.075715 -1.672859 -34.030024 -8.470618 3.954641 4.132434 6.367108 -6.083588 10.687326 -4.186519 0.000003 0.000003 0.000009 0.049729 7.584508 -3.459297 -0.005611 -0.433352 6.665962 -0.069557 -0.448879 15.107900 0.000002 -0.000001 0.000001 0.390101 8.850481 3.591910 -0.028208 -0.452641 1.048799 -0.143724 -0.458650 6.423845 -0.000002 -0.000001 -0.000001 0.223940 7.140233 2.320532 0.017162 -0.587824 8.896918 0.047115 -0.625357 -0.594453 0.000000 -0.000001 -0.000001 0.287657 9.547424 6.967865 -0.315729 -0.614538 7.125070 -0.438562 -0.636678 10.504163 0.000001 0.000001 0.000002 -6.170336 2.245144 1.083775 51.360752 11.241699 4.087531 -31.968789 9.010766 -12.428550 -0.000016 0.000000 -0.000004 0.000000 -0.000000 0.000000 -11.192261 -0.950070 -6.511260 55.697720 -7.321843 -6.814317 -33.005202 -4.107876 13.268657 -0.650864 0.000002 -0.000001 0.000001 0.000001 -0.000000 
0.092337 69.882751 0.553800 -12.390891 -12.791924 -0.955165 2.764384 2.286435 -3.110699 9.715259 0.221881 -0.066205 9.713554 0.292209 -0.041426 -2.733367 1.567405 0.366068 -19.926382 10.108597 -4.536265 -0.000000 0.000000 -0.000001 0.890062 -4.670474 13.472698 70.792828 -35.254841 -39.782536 15.554018 -110.019321 16.076433 3.385981 0.064425 49.559668 -3.444004 28.859971 12.255730 3.243147 -4.685037 -5.926725 -4.844272 -4.083326 5.619810 -0.000001 0.000000 -0.000003 0.615439 -9.634162 6.400322 -0.494251 1.118833 -12.786468 -0.602139 1.120747 -15.323775 -0.000000 0.000003 -0.000001 0.472282 -8.197369 4.017279 -0.147278 1.097136 -10.348502 -0.151068 1.127332 -13.972548 0.000001 -0.000001 -0.000004 0.508574 -7.525193 0.729712 -0.096161 1.132348 -11.925340 0.039410 1.150316 -8.097481 -0.000002 -0.000000 -0.000002 0.185100 -3.278894 1.010883 0.131705 -2.873090 -14.253415 -0.057850 1.200024 -17.099992 0.000002 -0.000001 -0.000000 0.773914 6.032809 0.712025 76.026651 -7.902646 56.957467 5.742121 134.414517 -7.609719 22.260435 -13.040481 3.035963 -1.672833 -34.030007 -8.470615 3.954636 4.132436 6.367107 -6.083596 10.687325 -4.186517 -0.000000 0.000005 0.000007 0.047219 7.563833 -3.155256 -0.005101 -0.443776 6.817810 -0.069058 -0.459470 15.259747 0.000004 0.000001 0.000002 0.383826 8.837773 3.797203 -0.031031 -0.459036 1.154291 -0.145687 -0.465030 6.525599 -0.000001 0.000001 0.000000 0.223898 7.134849 2.403176 0.017470 -0.590580 8.939590 0.047451 -0.628010 -0.553273 -0.000000 -0.000001 -0.000000 0.288314 9.548365 6.952943 -0.315445 -0.614064 7.117679 -0.438286 -0.636188 10.496761 -0.000000 0.000004 0.000002 -5.635170 3.282289 1.866861 53.182756 11.436192 4.470332 -33.032359 8.185426 -12.934197 -0.000075 -0.000003 0.000000 0.000000 -0.000001 -0.000000 -10.279224 -1.146719 -5.916461 56.664619 -7.500102 -7.461423 -33.452603 -4.372106 13.669646 -0.819570 0.000002 -0.000002 0.000001 -0.000003 0.000000 
